<?xml version="1.0" encoding="UTF-8"?>
<!DOCTYPE svg PUBLIC "-//W3C//DTD SVG 1.1//EN" "http://www.w3.org/Graphics/SVG/1.1/DTD/svg11.dtd">
<svg xmlns="http://www.w3.org/2000/svg" style="background-color: rgb(255, 255, 255);" xmlns:xlink="http://www.w3.org/1999/xlink" version="1.1" width="311px" height="301px" viewBox="-0.5 -0.5 311 301"><defs/><g><rect x="0" y="0" width="80" height="30" fill="#ffffff" stroke="#000000" pointer-events="all"/><g fill="#000000" text-anchor="middle" font-size="12px"><text x="39.5" y="18.5">r0</text></g><rect x="0" y="30" width="80" height="30" fill="#ffffff" stroke="#000000" pointer-events="all"/><g fill="#000000" text-anchor="middle" font-size="12px"><text x="39.5" y="48.5">r1</text></g><rect x="0" y="60" width="80" height="30" fill="#ffffff" stroke="#000000" pointer-events="all"/><g fill="#000000" text-anchor="middle" font-size="12px"><text x="39.5" y="78.5">r2</text></g><rect x="0" y="90" width="80" height="30" fill="#ffffff" stroke="#000000" pointer-events="all"/><g fill="#000000" text-anchor="middle" font-size="12px"><text x="39.5" y="108.5">r3</text></g><rect x="0" y="120" width="80" height="30" fill="#ffffff" stroke="#000000" pointer-events="all"/><g fill="#000000" text-anchor="middle" font-size="12px"><text x="39.5" y="138.5">r4</text></g><rect x="0" y="150" width="80" height="30" fill="#ffffff" stroke="#000000" pointer-events="all"/><g fill="#000000" text-anchor="middle" font-size="12px"><text x="39.5" y="168.5">r5</text></g><rect x="0" y="180" width="80" height="30" fill="#ffffff" stroke="#000000" pointer-events="all"/><g fill="#000000" text-anchor="middle" font-size="12px"><text x="39.5" y="198.5">r6</text></g><rect x="0" y="210" width="80" height="30" fill="#ffffff" stroke="#000000" pointer-events="all"/><g fill="#000000" text-anchor="middle" font-size="12px"><text x="39.5" y="228.5">r7</text></g><rect x="110" y="0" width="80" height="30" fill="#ffffff" stroke="#000000" pointer-events="all"/><g fill="#000000" text-anchor="middle" font-size="12px"><text x="149.5" y="18.5">r8</text></g><rect x="110" y="30" width="80" height="30" fill="#ffffff" stroke="#000000" pointer-events="all"/><g fill="#000000" text-anchor="middle" font-size="12px"><text x="149.5" y="48.5">r9</text></g><rect x="110" y="60" width="80" height="30" fill="#ffffff" stroke="#000000" pointer-events="all"/><g fill="#000000" text-anchor="middle" font-size="12px"><text x="149.5" y="78.5">r10</text></g><rect x="110" y="90" width="80" height="30" fill="#ffffff" stroke="#000000" pointer-events="all"/><rect x="110" y="120" width="80" height="30" fill="#ffffff" stroke="#000000" pointer-events="all"/><rect x="110" y="150" width="80" height="30" fill="#ffffff" stroke="#000000" pointer-events="all"/><rect x="110" y="180" width="80" height="30" fill="#ffffff" stroke="#000000" pointer-events="all"/><rect x="110" y="210" width="80" height="30" fill="#ffffff" stroke="#000000" pointer-events="all"/><rect x="0" y="270" width="80" height="30" fill="#ffffff" stroke="#000000" pointer-events="all"/><g fill="#000000" text-anchor="middle" font-size="12px"><text x="39.5" y="288.5">CSPR</text></g><rect x="127" y="215" width="70" height="20" fill="none" stroke="none" pointer-events="all"/><g fill="#000000" text-anchor="middle" font-size="12px"><text x="161.5" y="228.5">r15 (pc)</text></g><rect x="124" y="185" width="70" height="20" fill="none" stroke="none" pointer-events="all"/><g fill="#000000" text-anchor="middle" font-size="12px"><text x="158.5" y="198.5">r14 (lr)</text></g><rect x="127" y="155" width="70" height="20" fill="none" stroke="none" pointer-events="all"/><g fill="#000000" text-anchor="middle" font-size="12px"><text x="161.5" y="168.5">r13 (sp)</text></g><rect x="125" y="125" width="70" height="20" fill="none" stroke="none" pointer-events="all"/><g fill="#000000" text-anchor="middle" font-size="12px"><text x="159.5" y="138.5">r12 (ip)</text></g><rect x="126" y="95" width="70" height="20" fill="none" stroke="none" pointer-events="all"/><g fill="#000000" text-anchor="middle" font-size="12px"><text x="160.5" y="108.5">r11 (fp)</text></g><rect x="200" y="95" width="110" height="20" fill="none" stroke="none" pointer-events="all"/><g fill="#000000" font-style="italic" font-size="12px"><text x="201.5" y="108.5">Frame Pointer</text></g><rect x="200" y="155" width="110" height="20" fill="none" stroke="none" pointer-events="all"/><g fill="#000000" font-style="italic" font-size="12px"><text x="201.5" y="168.5">Stack Pointer</text></g><rect x="200" y="185" width="110" height="20" fill="none" stroke="none" pointer-events="all"/><g fill="#000000" font-style="italic" font-size="12px"><text x="201.5" y="198.5">Link Register</text></g><rect x="200" y="215" width="110" height="20" fill="none" stroke="none" pointer-events="all"/><g fill="#000000" font-style="italic" font-size="12px"><text x="201.5" y="228.5">Program Counter</text></g><rect x="90" y="275" width="200" height="20" fill="none" stroke="none" pointer-events="all"/><g fill="#000000" font-style="italic" font-size="12px"><text x="91.5" y="288.5">Current Program Status Register</text></g><rect x="200" y="118" width="110" height="20" fill="none" stroke="none" pointer-events="all"/><g fill="#000000" font-style="italic" font-size="12px"><text x="201.5" y="131.5">Intra-procedure</text></g><rect x="200" y="138" width="110" height="20" fill="none" stroke="none" pointer-events="all"/><g fill="#000000" font-style="italic" font-size="12px"><text x="201.5" y="144.5">Scratch Register</text></g></g></svg>
